<?xml version="1.0" encoding="UTF-8"?>
<svg width="216" height="146" xmlns="http://www.w3.org/2000/svg">
 <g>
  <title>Layer 1</title>
  <g id="svg_1">
   <path fill="#ffffff" id="svg_2" d="m107.999001,73c8.638,0 16.011002,-3.056 22.120003,-9.166c6.110992,-6.110001 9.166,-13.482998 9.166,-22.119999c0,-8.636002 -3.055008,-16.009001 -9.166,-22.120001c-6.110001,-6.11 -13.484001,-9.165 -22.120003,-9.165c-8.636002,0 -16.010002,3.055 -22.120003,9.165c-6.111,6.111 -9.166,13.483999 -9.166,22.120001c0,8.637001 3.055,16.009998 9.166,22.119999c6.111,6.110001 13.484001,9.166 22.120003,9.166z"/>
   <path fill="#ffffff" id="svg_3" d="m165.070007,106.037003c-0.190994,-2.743004 -0.570999,-5.703003 -1.140991,-8.881004c-0.570007,-3.178001 -1.291,-6.124001 -2.160004,-8.839996c-0.869003,-2.715004 -2.037003,-5.362999 -3.503998,-7.943001c-1.466003,-2.580002 -3.150009,-4.779999 -5.052002,-6.599998s-4.223007,-3.272003 -6.964996,-4.358002c-2.744003,-1.085999 -5.772003,-1.629997 -9.085007,-1.629997c-0.488998,0 -1.630005,0.584 -3.421997,1.751999s-3.815002,2.472 -6.069,3.910995c-2.254005,1.438004 -5.188004,2.743004 -8.799004,3.909004c-3.612,1.167999 -7.237,1.751999 -10.876999,1.751999c-3.639,0 -7.264,-0.584 -10.875999,-1.751999c-3.611,-1.166 -6.544998,-2.471001 -8.799004,-3.909004c-2.253998,-1.438995 -4.277,-2.742996 -6.069,-3.910995c-1.792999,-1.167999 -2.932999,-1.751999 -3.421997,-1.751999c-3.312996,0 -6.340996,0.543999 -9.084,1.629997s-5.065002,2.539001 -6.966,4.358002c-1.901001,1.82 -3.584999,4.019997 -5.050999,6.599998s-2.634003,5.228996 -3.503002,7.943001c-0.868999,2.715996 -1.589001,5.661995 -2.159,8.839996c-0.570999,3.178001 -0.951,6.137001 -1.140999,8.881004c-0.189999,2.743996 -0.285,5.554001 -0.285,8.432999c0,6.516998 1.982998,11.664001 5.947998,15.438995c3.965,3.774002 9.234005,5.661011 15.806004,5.661011h71.208c6.571991,0 11.839996,-1.887009 15.806,-5.661011c3.966003,-3.774994 5.947998,-8.920998 5.947998,-15.438995c-0.000015,-2.878998 -0.095016,-5.690002 -0.287003,-8.432999z"/>
  </g>
 </g>
</svg>